<svg width="24" height="23" viewBox="0 0 24 23" fill="none" xmlns="http://www.w3.org/2000/svg">
<path d="M10.3198 18.4697C10.4598 18.5797 10.5998 18.6797 10.7498 18.7897C11.8898 19.6197 13.0398 20.2797 14.1898 20.7697C15.3398 21.2597 16.4298 21.4997 17.4498 21.4997C18.1498 21.4997 18.7998 21.3697 19.3998 21.1197C20.0098 20.8697 20.5498 20.4797 21.0398 19.9397C21.3298 19.6197 21.5498 19.2797 21.7198 18.9197C21.8898 18.5597 21.9698 18.1897 21.9698 17.8297C21.9698 17.5497 21.9098 17.2997 21.8098 17.0497C21.6998 16.7997 21.5198 16.5897 21.2598 16.4097L17.9498 14.0597C17.6998 13.8897 17.4698 13.7597 17.2498 13.6697C17.0298 13.5797 16.8298 13.5397 16.6398 13.5397C16.3898 13.5397 16.1598 13.6097 15.9298 13.7497C15.6998 13.8697 15.4598 14.0597 15.2098 14.3097L14.4498 15.0597C14.3398 15.1697 14.2098 15.2297 14.0398 15.2297C13.9498 15.2297 13.8698 15.2197 13.7898 15.1897C13.7198 15.1597 13.6598 15.1297 13.6098 15.1097C13.4198 15.0097 13.1998 14.8697 12.9598 14.6897" stroke="white" stroke-width="2.5" stroke-miterlimit="10" stroke-linecap="round" stroke-linejoin="round"/>
<path d="M10.73 12.72C10.21 12.19 9.73 11.66 9.28 11.14C8.84 10.62 8.53 10.19 8.35 9.86C8.33 9.8 8.3 9.74 8.27 9.66C8.25 9.58 8.24 9.51 8.24 9.43C8.24 9.27 8.29 9.14 8.4 9.03L9.16 8.24C9.4 8 9.59 7.76 9.72 7.53C9.86 7.3 9.93 7.06 9.93 6.82C9.93 6.63 9.88 6.42 9.79 6.21C9.7 5.99 9.57 5.76 9.39 5.51L7.07 2.24C6.89 1.98 6.66 1.8 6.4 1.68C6.15 1.56 5.87 1.5 5.59 1.5C4.85 1.5 4.15 1.81 3.51 2.44C2.98 2.94 2.6 3.5 2.36 4.11C2.12 4.71 2 5.36 2 6.04C2 7.08 2.24 8.17 2.72 9.31C3.2 10.44 3.86 11.58 4.68 12.72C5.51 13.86 6.44 14.95 7.47 15.99" stroke="white" stroke-width="2.5" stroke-miterlimit="10" stroke-linecap="round" stroke-linejoin="round"/>
</svg>
