<svg version="1.0" xmlns="http://www.w3.org/2000/svg"
 width="500.000000pt" height="500.000000pt" viewBox="0 0 500.000000 500.000000"
 preserveAspectRatio="xMidYMid meet">

<g transform="translate(0.000000,500.000000) scale(0.100000,-0.100000)"
fill="#000000" stroke="none">
<path d="M1562 3237 c-43 -16 -99 -61 -117 -96 -13 -26 -45 -159 -45 -189 0
-10 45 -11 228 -6 125 4 228 7 229 8 1 1 13 60 28 131 14 72 28 138 31 148 5
16 -7 17 -158 16 -98 0 -176 -5 -196 -12z"/>
<path d="M2080 3193 c-6 -32 -20 -100 -31 -150 -10 -51 -19 -95 -19 -97 0 -2
16 -14 35 -26 45 -28 96 -99 151 -209 24 -50 44 -92 44 -95 0 -3 11 -29 24
-58 13 -29 47 -109 76 -178 29 -69 55 -131 60 -139 5 -10 54 45 165 184 l157
197 -104 256 c-56 141 -112 270 -123 286 -41 61 -134 86 -318 86 l-106 0 -11
-57z"/>
<path d="M3495 3236 c-28 -7 -66 -20 -85 -29 -63 -31 -62 -29 -306 -337 -54
-69 -214 -271 -354 -448 -140 -177 -256 -329 -258 -337 -3 -13 23 -80 81 -209
26 -59 65 -86 124 -86 84 0 92 7 282 250 67 85 127 162 134 170 7 8 36 46 65
84 30 37 60 75 68 85 7 9 52 66 100 126 47 61 122 155 165 210 318 402 307
385 324 493 l7 42 -149 -1 c-81 -1 -171 -7 -198 -13z"/>
<path d="M1566 2789 c-92 -12 -170 -48 -196 -91 -24 -40 -35 -76 -60 -210 -10
-57 -51 -260 -90 -452 -38 -192 -68 -352 -65 -355 13 -13 145 21 214 55 165
81 274 238 335 479 27 108 116 545 116 570 0 12 -16 15 -92 14 -51 -1 -124 -6
-162 -10z"/>
<path d="M1997 2783 c-3 -5 -28 -123 -57 -263 -80 -398 -103 -482 -159 -600
-31 -66 -137 -175 -201 -208 l-45 -23 205 4 c381 9 468 63 526 327 52 234 52
237 9 327 -103 216 -173 349 -203 384 -36 42 -68 64 -75 52z"/>
<path d="M3645 2629 c-70 -88 -133 -166 -139 -172 -6 -7 -23 -28 -38 -49 -15
-20 -34 -42 -41 -50 -7 -7 -50 -59 -95 -115 l-82 -102 -10 -98 c-15 -159 -13
-223 10 -261 37 -60 150 -91 332 -92 l86 0 6 63 c3 34 13 134 21 222 18 201
30 313 60 590 13 121 22 221 21 223 -2 1 -61 -70 -131 -159z"/>
</g>
</svg>
